<?xml version="1.0" encoding="iso-8859-1"?>
<!-- Generator: Adobe Illustrator 18.0.0, SVG Export Plug-In . SVG Version: 6.00 Build 0)  -->
<!DOCTYPE svg PUBLIC "-//W3C//DTD SVG 1.1//EN" "http://www.w3.org/Graphics/SVG/1.1/DTD/svg11.dtd">
<svg version="1.1" id="Capa_1" xmlns="http://www.w3.org/2000/svg" xmlns:xlink="http://www.w3.org/1999/xlink" x="0px" y="0px"
	 viewBox="0 0 512 512" style="enable-background:new 0 0 512 512;" xml:space="preserve">
<g>
	<path d="M470.637,41.371c-6.25-6.258-14.438-9.383-22.625-9.383c-8.191,0-16.377,3.125-22.625,9.383L41.363,425.387
		c-12.504,12.5-12.504,32.75,0,45.25c6.25,6.25,14.438,9.375,22.625,9.375c8.191,0,16.375-3.125,22.625-9.375L470.637,86.621
		C483.139,74.121,483.139,53.863,470.637,41.371z"/>
	<path d="M73.301,348.199l87.193-87.195c-0.061-1.688-0.498-3.281-0.498-5c0-52.875,43.031-95.945,95.91-96.008
		c0.029-0.031,0.094-0.031,0.158,0c0,0,0,0,0.029,0c1.688,0,3.25,0.406,4.904,0.5l57.443-57.438
		c-19.283-4.125-39.566-7.063-62.285-7.063c0,0,0,0-0.031,0c-0.031,0-0.06,0-0.125,0c0,0-0.064,0-0.125,0c-0.031,0-0.031,0-0.031,0
		C131.68,96.059,62.676,163.559,6.609,236.496c-8.813,11.508-8.813,27.508,0,39.008C26.519,301.41,48.238,326.449,73.301,348.199z"
		/>
	<path d="M505.391,236.496c-19.91-25.898-41.629-50.938-66.693-72.688l-87.191,87.195c0.06,1.688,0.498,3.281,0.498,5
		c0,52.875-43.031,95.938-95.91,96.008c-0.029,0-0.029,0-0.029,0s-0.033,0-0.065,0c-0.031,0-0.064,0-0.064,0s0,0-0.029,0
		c-1.688,0-3.25-0.414-4.908-0.5l-57.439,57.438c19.283,4.125,39.566,7.063,62.285,7.063c0,0,0,0,0.031,0h0.031
		c0.029,0,0.094,0,0.094,0s0.031,0,0.065,0c0,0,0,0,0.029,0h0.031c0.031,0,0.031,0,0.031,0c0.094,0,0.219,0,0.344,0
		c0.125-0.031,0.25-0.031,0.438,0c123.633-0.344,192.479-67.719,248.453-140.508C514.203,264.004,514.203,248.004,505.391,236.496z"
		/>
</g>
<g>
</g>
<g>
</g>
<g>
</g>
<g>
</g>
<g>
</g>
<g>
</g>
<g>
</g>
<g>
</g>
<g>
</g>
<g>
</g>
<g>
</g>
<g>
</g>
<g>
</g>
<g>
</g>
<g>
</g>
</svg>
