<?xml version="1.0" encoding="iso-8859-1"?>
<!-- Generator: Adobe Illustrator 18.0.0, SVG Export Plug-In . SVG Version: 6.00 Build 0)  -->
<!DOCTYPE svg PUBLIC "-//W3C//DTD SVG 1.1//EN" "http://www.w3.org/Graphics/SVG/1.1/DTD/svg11.dtd">
<svg version="1.1" id="Capa_1" xmlns="http://www.w3.org/2000/svg" xmlns:xlink="http://www.w3.org/1999/xlink" x="0px" y="0px"
	 viewBox="0 0 488.648 488.648" style="enable-background:new 0 0 488.648 488.648;" xml:space="preserve">
<path id="XMLID_349_" d="M486.156,356.878l-19.735-63.376c11.032-14.164,14.651-32.946,9.175-50.575l-15.339-49.31
	c-5.485-17.629-19.144-31.04-36.268-36.437l-19.728-63.353c-9.016-28.99-39.959-45.266-68.963-36.235l-21.513,6.708
	c-10.744,3.34-17.11,14.061-15.468,24.852c-1.386-2.186-2.97-4.243-4.78-6.14c-7.462-7.798-17.782-12.21-28.567-12.21H39.519
	c-10.785,0-21.112,4.412-28.559,12.21C3.498,90.809-0.449,101.315,0.041,112.09l12.402,277.628
	c1.464,24.578,21.913,43.827,46.563,43.827h186.478c24.627,0,45.09-19.279,46.581-43.946l12.392-277.508
	c0.041-0.85-0.128-1.674-0.144-2.513l91.157,292.855l4.764,15.292c3.684,11.858,16.324,18.496,28.183,14.804l21.496-6.686
	C478.919,416.804,495.18,385.883,486.156,356.878z M123.503,328.384c0,11.512-9.375,20.871-20.873,20.871
	c-11.504,0-20.855-9.359-20.855-20.871V141.777c0-11.496,9.351-20.871,20.855-20.871c11.497,0,20.873,9.375,20.873,20.871V328.384z
	 M222.707,328.384c0,11.512-9.351,20.871-20.865,20.871c-11.512,0-20.88-9.359-20.88-20.871V141.777
	c0-11.496,9.368-20.871,20.88-20.871c11.514,0,20.865,9.375,20.865,20.871V328.384z M439.792,393.329l-10.487,3.283L334.912,93.363
	l10.506-3.274c11.095-3.443,22.913,2.777,26.355,13.842l22.69,72.912c2.066,6.613,7.886,11.281,14.739,11.922
	c8.686,0.767,15.972,6.644,18.565,14.97l15.341,49.311c2.594,8.31-0.056,17.285-6.782,22.881c-5.284,4.388-7.412,11.561-5.371,18.15
	l22.704,72.912C457.118,378.07,450.898,389.887,439.792,393.329z"/>
<g>
</g>
<g>
</g>
<g>
</g>
<g>
</g>
<g>
</g>
<g>
</g>
<g>
</g>
<g>
</g>
<g>
</g>
<g>
</g>
<g>
</g>
<g>
</g>
<g>
</g>
<g>
</g>
<g>
</g>
</svg>
