<?xml version="1.0" encoding="iso-8859-1"?>
<!-- Generator: Adobe Illustrator 19.0.0, SVG Export Plug-In . SVG Version: 6.00 Build 0)  -->
<svg version="1.1" id="Capa_1" xmlns="http://www.w3.org/2000/svg" xmlns:xlink="http://www.w3.org/1999/xlink" x="0px" y="0px"
	 viewBox="0 0 512.65 512.65" style="enable-background:new 0 0 512.65 512.65;" xml:space="preserve">
<g>
	<g>
		<path d="M409.925,205.45h-230.4v-74.24c0-38.4,25.6-71.68,61.44-79.36c48.64-7.68,92.16,28.16,92.16,76.8
			c0,15.36,12.8,25.6,25.6,25.6c12.8,0,25.6-10.24,25.6-25.6c0-74.24-64-135.68-140.8-128c-66.56,7.68-115.2,66.56-115.2,133.12
			v71.68h-25.6c-12.8,0-25.6,10.24-25.6,25.6v256c0,12.8,12.8,25.6,25.6,25.6h307.2c15.36,0,25.6-12.8,25.6-25.6v-256
			C435.525,215.69,425.285,205.45,409.925,205.45z M281.925,376.97v33.28c0,15.36-10.24,25.6-25.6,25.6s-25.6-10.24-25.6-25.6
			v-33.28c-15.36-10.24-25.6-25.6-25.6-43.52c0-33.28,30.72-56.32,64-48.64c17.92,5.12,33.28,20.48,38.4,38.4
			C312.645,346.25,299.845,366.73,281.925,376.97z"/>
	</g>
</g>
<g>
</g>
<g>
</g>
<g>
</g>
<g>
</g>
<g>
</g>
<g>
</g>
<g>
</g>
<g>
</g>
<g>
</g>
<g>
</g>
<g>
</g>
<g>
</g>
<g>
</g>
<g>
</g>
<g>
</g>
</svg>
